<?xml version="1.0" encoding="utf-8"?>
<!-- Generator: Adobe Illustrator 22.1.0, SVG Export Plug-In . SVG Version: 6.00 Build 0)  -->
<svg version="1.1" xmlns="http://www.w3.org/2000/svg" xmlns:xlink="http://www.w3.org/1999/xlink" x="0px" y="0px"
	 viewBox="0 0 1920 554" style="enable-background:new 0 0 1920 554;" xml:space="preserve">
<style type="text/css">
	.st0{fill:#5B370F;stroke:#5B370F;stroke-miterlimit:10;}
	.st1{stroke:#000000;stroke-miterlimit:10;}
	.st2{fill:#rgb(204, 232, 250);}
	.st3{stroke:#000000;stroke-miterlimit:10;}
	.st4{fill:#000000;stroke:#000000;stroke-miterlimit:10;}
	.st5{fill:none;stroke:#000000;stroke-miterlimit:10;}
	.st6{stroke:#000000;stroke-linecap:round;stroke-miterlimit:10;}
	.st7{fill:rgb(212, 240, 247);;stroke:#000000;stroke-miterlimit:10;}
	.st8{fill:rgb(212, 240, 247);;stroke:#000000;stroke-miterlimit:10;}
	.st9{stroke:#000000;stroke-width:1.2;stroke-miterlimit:10;}
	.st10{fill:none;stroke:#000000;stroke-width:3;stroke-miterlimit:10;}
	.st11{fill:none;stroke:#000000;stroke-width:1.2;stroke-miterlimit:10;}
	.st12{fill:none;stroke:#000000;stroke-width:6;stroke-miterlimit:10;}
	.st13{fill:#FF0000;stroke:#FF0000;stroke-miterlimit:10;}
	.st14{display:none;}
	.st15{display:inline;fill:none;stroke:#FF0000;stroke-miterlimit:10;}
	.st16{display:inline;fill:#FF0000;stroke:#FF0000;stroke-miterlimit:10;}


#wheelcarts{
	transform-origin: 28.6% 78%;
	animation: rotate 10s infinite linear;
}

@keyframes rotate {
  100% {
    transform: rotate(360deg);
  }
}


@keyframes lights {
  0%        {fill: #000}
  20%       {fill: #fbcb43}
  40%, 100% {fill: #000}
}

#lights {
  animation: lights 5s ease infinite;
}

</style>
<g id="Layer_12">
</g>
<g id="cloud">
</g>
<g id="cloud2">
</g>
<g id="cloud3">
</g>
<g id="cloud4">
</g>
<g id="Bridge_2">
	<rect x="38.6" y="537.9" class="st0" width="957.3" height="4.6"/>
</g>
<g id="Bridge">
	<line class="st1" x1="58.9" y1="529.4" x2="38.2" y2="529.4"/>
	<line class="st1" x1="38.2" y1="543.2" x2="38.2" y2="529.4"/>
	<line class="st1" x1="41.6" y1="543.2" x2="338.3" y2="543.2"/>
	<line class="st1" x1="997.1" y1="543.2" x2="879.8" y2="543.2"/>
	<line class="st1" x1="338.3" y1="543.2" x2="748.7" y2="543.2"/>
	<line class="st1" x1="879.8" y1="543.2" x2="748.7" y2="543.2"/>
	<line class="st1" x1="910.9" y1="543.2" x2="910.9" y2="553.6"/>
	<line class="st1" x1="855.7" y1="543.2" x2="855.7" y2="553.6"/>
	<rect x="907.4" y="543.2" class="st1" width="6.9" height="10.3"/>
	<rect x="855.7" y="543.2" class="st1" width="3.4" height="10.3"/>
	<rect x="500.4" y="543.2" class="st1" width="3.4" height="12"/>
	<rect x="459" y="543.6" class="st1" width="3.4" height="12.2"/>
	<polygon class="st1" points="0,0 0,0 0,0 0,0 	"/>
	<rect x="441.8" y="543.6" class="st1" width="3.4" height="12.2"/>
	<rect x="369.3" y="543.6" class="st1" width="3.4" height="12.2"/>
	<rect x="348.6" y="543.2" class="st1" width="0" height="10.3"/>
	<polygon class="st1" points="0,0 0,0 0,0 0,0 	"/>
	<polygon class="st1" points="0,0 0,0 0,0 0,0 	"/>
	<rect x="321" y="543.2" class="st1" width="0" height="13.2"/>
	<rect x="124.4" y="543.2" class="st1" width="3.4" height="13.2"/>
	<rect x="152" y="543.2" class="st1" width="0" height="10.3"/>
	<rect x="165.8" y="543.2" class="st1" width="0" height="10.3"/>
	<rect x="176.2" y="543.2" class="st1" width="0" height="10.3"/>
	<rect x="183.1" y="543.2" class="st1" width="0" height="10.3"/>
	<rect x="203.7" y="543.2" class="st1" width="0" height="10.3"/>
	<rect x="227.9" y="543.2" class="st1" width="0" height="6.9"/>
	<rect x="238.2" y="543.6" class="st1" width="2.9" height="12.7"/>
	<rect x="89.9" y="543.2" class="st1" width="0" height="13.8"/>
	<rect x="62.3" y="543.2" class="st1" width="0" height="10.3"/>
	<rect x="69.2" y="543.2" class="st1" width="3.4" height="13.2"/>
	<rect x="53.7" y="544.9" class="st2" width="0" height="6.9"/>
	<rect x="143.4" y="544.9" class="st2" width="0" height="10.3"/>
	<polygon class="st3" points="41.6,543.2 38.2,543.2 38.2,543.2 41.6,543.2 	"/>
	<polygon class="st3" points="62.3,553.6 62.3,553.6 62.3,553.6 62.3,553.6 	"/>
	<rect x="62.3" y="543.2" class="st3" width="0" height="13.8"/>
	<polygon class="st3" points="0,0 0,0 0,0 0,0 	"/>
	<rect x="152" y="543.2" class="st3" width="0" height="13.8"/>
	<polygon class="st3" points="0,0 0,0 0,0 0,0 	"/>
	<polygon class="st3" points="0,0 0,0 0,0 0,0 	"/>
	<polygon class="st3" points="0,0 0,0 0,0 0,0 	"/>
	<rect x="348.6" y="545.5" class="st3" width="0" height="10.3"/>
	<polygon class="st3" points="0,0 0,0 0,0 0,0 	"/>
	<polygon class="st3" points="0,0 0,0 0,0 0,0 	"/>
	<rect x="38.2" y="529.4" class="st3" width="0" height="13.8"/>
	<polygon class="st3" points="38.2,529.4 94.7,529.4 94.7,529.4 38.2,529.4 	"/>
	<polygon class="st3" points="48.5,543.2 38.2,543.2 38.2,543.2 48.5,543.2 	"/>
	<line class="st3" x1="41.6" y1="543.2" x2="38.2" y2="543.2"/>
	<line class="st3" x1="41.6" y1="543.2" x2="38.2" y2="543.2"/>
	<rect x="165.8" y="543.2" class="st3" width="0" height="13.8"/>
	<rect x="176.2" y="543.2" class="st3" width="0" height="13.8"/>
	<rect x="183.1" y="543.2" class="st3" width="0" height="13.8"/>
	<rect x="203.7" y="543.2" class="st3" width="0" height="13.8"/>
	<rect x="227.9" y="543.2" class="st3" width="0" height="13.8"/>
	<polygon class="st3" points="310.7,529.4 286.5,529.4 286.5,529.4 310.7,529.4 	"/>
	<rect x="283.1" y="529.4" class="st4" width="717.5" height="0"/>
	<rect x="134.6" y="543.6" class="st1" width="1.2" height="12.7"/>
	
		<rect x="510.9" y="543.2" transform="matrix(-1 -1.224647e-16 1.224647e-16 -1 1021.7238 1098.3976)" class="st1" width="0" height="12"/>
	
		<rect x="527.1" y="543.2" transform="matrix(-1 -1.224647e-16 1.224647e-16 -1 1054.1368 1098.3976)" class="st1" width="0" height="12"/>
	
		<rect x="481.9" y="543.2" transform="matrix(-1 -1.224647e-16 1.224647e-16 -1 963.8432 1098.3976)" class="st1" width="0" height="12"/>
	
		<rect x="562.9" y="543.2" transform="matrix(-1 -1.224647e-16 1.224647e-16 -1 1125.9088 1098.3976)" class="st1" width="0" height="12"/>
	
		<rect x="582.6" y="543.2" transform="matrix(-1 -1.224647e-16 1.224647e-16 -1 1167.5712 1098.3976)" class="st1" width="2.3" height="12"/>
	
		<rect x="589.6" y="543.2" transform="matrix(-1 -1.224647e-16 1.224647e-16 -1 1179.1589 1098.3976)" class="st1" width="0" height="12"/>
	
		<rect x="659" y="543.2" transform="matrix(-1 -1.224647e-16 1.224647e-16 -1 1320.3759 1098.3976)" class="st1" width="2.3" height="12"/>
	
		<rect x="670.6" y="543.2" transform="matrix(-1 -1.224647e-16 1.224647e-16 -1 1341.2245 1098.3976)" class="st1" width="0" height="12"/>
	
		<rect x="671.8" y="543.2" transform="matrix(-1 -1.224647e-16 1.224647e-16 -1 1343.5397 1098.3976)" class="st1" width="0" height="12"/>
	<rect x="718.1" y="543.6" class="st1" width="1.2" height="10.4"/>
	
		<rect x="799.1" y="543.2" transform="matrix(-1 -1.224647e-16 1.224647e-16 -1 1599.3601 1097.2399)" class="st1" width="1.2" height="10.9"/>
	
		<rect x="762.1" y="543.2" transform="matrix(-1 -1.224647e-16 1.224647e-16 -1 1524.127 1097.2399)" class="st1" width="0" height="10.9"/>
</g>
<g id="Building_1">
	<rect x="62.3" y="489.2" class="st1" width="220.8" height="48.3"/>
	<rect x="127.7" y="447.6" class="st1" width="84.5" height="48.9"/>
	<path class="st5" d="M275.9,489.2c0-23-30-41.7-67.1-41.7"/>
	<path class="st5" d="M69.8,489.2c0-23,30-41.7,67.1-41.7"/>
	<path class="st6" d="M120.1,479.9l50-10.8c1.7,15.5-16.6,32.9-42.1,39.8c-27.2,7.4-53.1,0.4-57.4-15.5
		c-4.3-15.9,14.4-35.1,41.6-42.5s53.1-0.4,57.4,15.5c0.2,0.6,0.3,1.2,0.4,1.8L120.1,479.9z"/>
	<path class="st6" d="M226.4,479.9l-50-10.8c-1.7,15.5,16.6,32.9,42.1,39.8c27.2,7.4,53.1,0.4,57.4-15.5s-14.4-35.1-41.6-42.5
		c-27.2-7.4-53.1-0.4-57.4,15.5c-0.2,0.6-0.3,1.2-0.4,1.8L226.4,479.9z"/>
</g>
<g id="Building_2">
	<polygon class="st7" points="303.8,508.7 303.8,508.7 303.8,508.7 303.8,508.7 	"/>
	<polygon class="st7" points="303.8,508.7 303.8,508.7 303.8,508.7 303.8,508.7 	"/>
	<path class="st7" d="M327.9,475.4c0,19.1-13.9,34.5-31,34.5"/>
	<path class="st7" d="M334.8,475.4c0,19.1,10.8,34.5,24.1,34.5"/>
	<path class="st1" d="M327.9,475.4c1.9,0,3.4-4.6,3.4-10.3"/>
	<path class="st7" d="M331.4,465c0,5.7,1.5,10.3,3.4,10.3"/>
	<line class="st7" x1="296.7" y1="510.1" x2="359.2" y2="510.1"/>
	<rect x="314.1" y="510.1" class="st1" width="34.7" height="26.6"/>
	<path class="st1" d="M302.5,510.1c17.1,0,34.2,0,51.3,0l-7.3-4.6l-3.7-4.5l-2.1-3l-2.1-4l-1.1-2.8l-1.2-3.9l-1.1-5.8l-0.3-3.7
		l-0.1-1.5l-1.4-1.6l-1.2-2.6l-0.5-2.2l-1.5,2.1l-2.3,4.6c0,1.2,0,2.3,0,3.5c0,3,0,3,0,3.5c-0.2,1.9-0.8,2.5-2.3,5.8
		c-1.6,3.5-1.1,3.7-2.3,5.8c-1.1,2-2.3,3.4-3.5,4.6c-1.4,1.6-3.7,3.7-6.9,5.8C309.4,507,306,508.5,302.5,510.1z"/>
	<path class="st1" d="M302.5,490.4"/>
</g>
<g id="Building_3">
	<rect x="372.8" y="520.2" class="st1" width="134.5" height="17.2"/>
	<rect x="386.6" y="508.9" class="st1" width="55.2" height="13.6"/>
</g>
<g id="Building_4">
	<rect x="600.4" y="496.1" class="st1" width="224.2" height="41.4"/>
	<rect x="821.2" y="509.9" class="st1" width="131.1" height="27.6"/>
	<g id="Layer_8">
	</g>
	<path class="st7" d="M621.1,496.1c0-11.4,9.3-20.7,20.7-20.7"/>
	<path class="st7" d="M666,496.1c0-11.4-9.3-20.7-20.7-20.7"/>
	<path class="st7" d="M645.3,475.4c0,0-1.5,0-3.4,0"/>
	<path class="st7" d="M893.6,509.9c0-9.5,6.2-17.2,13.8-17.2"/>
	<path class="st7" d="M928.1,509.9c0-9.5-7.7-17.2-17.2-17.2"/>
	<path class="st7" d="M907.4,492.6c0,0,1.5,0,3.4,0"/>
	<path class="st4" d="M666,496.1c1.5-1.4-1.5-7.6-4.6-11.7c-1.7-2.3-4-5.2-8.1-7c-3.8-1.7-7.1-1.5-11.6-1.2
		c-4.1,0.3-7.1,0.5-10.4,2.3c-4.1,2.3-6.2,5.7-6.9,7c-0.1,0.3-3.4,6.3-2.3,9.4c0.9,2.4,6,6.9,41.7,1.2
		C664.6,496.5,665.5,496.6,666,496.1z"/>
	<path class="st4" d="M927.6,509.5c0-1.7-0.2-5.1-2.3-8.7c-4.2-7-12-8-12.7-8.1c-1.1-0.1-8.4-0.8-13.9,4.8c-4.7,4.8-4.7,10.8-4.6,12
		"/>
</g>
<g id="Big_building">
	<path class="st3" d="M1034,528.2c1.2-10,2.2-19.9,3-29.9h-39.9v55.2h34.1C1032.1,545.1,1033,536.7,1034,528.2z"/>
	<path class="st1" d="M1019.7,498.4c-0.6,8-1.3,15.9-1.5,23.2c-0.4,10.7-0.7,21.3-1.1,32h587v-55.2H1019.7z"/>
	<rect x="1135.1" y="457" class="st1" width="784.4" height="96.6"/>
	<rect x="1413.5" y="417.5" class="st1" width="139.2" height="91.2"/>
	<rect x="1397.6" y="439.7" class="st1" width="522.9" height="20.6"/>
	<path class="st1" d="M1397.2,460.4h-241.5v-37.9c3,0,53.9-0.2,105.2-0.4c27.4-0.1,54-0.2,89.1,0c20,0.1,36.3,0.3,47.1,0.4
		C1397.2,435.1,1397.2,447.8,1397.2,460.4z"/>
	<rect x="1424.8" y="418.6" class="st3" width="10.3" height="52.1"/>
	<path class="st1" d="M1397.2,436.3h-24.1v-41.4c1.7,0,3.3,0,5,0c6.4,0,12.8,0,19.2,0C1397.2,408.7,1397.2,422.5,1397.2,436.3z"/>
	<rect x="1224.8" y="395.5" class="st1" width="27.6" height="47.7"/>
	<path class="st3" d="M1231.7,425.9c0-10.3,0-20.7,0-31"/>
	<path class="st3" d="M1162.7,398.1c0-18.3,0-36.6,0-55"/>
	<path class="st3" d="M994.2,494.9c4.8,0,9.6,0,14.5,0"/>
	<path class="st3" d="M1008.6,494.9c-5.4,0-10.7,0-16.1,0"/>
	<rect x="1079.9" y="457" class="st1" width="58.6" height="20.7"/>
	<rect x="1114.4" y="450.1" class="st1" width="65.5" height="13.8"/>
	<path class="st3" d="M1148.9,467.3c0-6,0-11.9,0-17.9"/>
	<path class="st3" d="M928.1,408.7"/>
	<path class="st7" d="M1021.2,450.1c0,13.3-6.2,24.1-13.8,24.1"/>
	<path class="st7" d="M1007.4,474.2c0,13.3-13.9,24.1-31,24.1"/>
	<path class="st7" d="M1028.1,450.1c0,15.3,12.3,27.6,27.6,27.6"/>
	<path class="st7" d="M1024.7,436.3c0,7.6-1.5,13.8-3.4,13.8"/>
	<g>
		<path class="st2" d="M1007.9,475"/>
		<g>
			<path d="M1007.9,475.5c0.6,0,0.6-1,0-1C1007.3,474.5,1007.3,475.5,1007.9,475.5L1007.9,475.5z"/>
		</g>
	</g>
	<path class="st7" d="M1155.8,429.4c0,11.4-10.8,20.7-24.1,20.7"/>
	<path class="st7" d="M1162.7,398.3c0,13.3-3.1,24.1-6.9,24.1"/>
	<path class="st7" d="M1162.7,398.3c0,13.3,3.1,24.1,6.9,24.1"/>
	<line class="st7" x1="1162.7" y1="394.9" x2="1162.7" y2="401.8"/>
	<polygon class="st7" points="1162.7,343.1 1162.7,343.1 1162.7,343.1 1162.7,343.1 	"/>
	<rect x="965.8" y="394.3" class="st1" width="3.5" height="144.7"/>
	<g>
		<rect x="1053.7" y="478.2" width="108.4" height="36"/>
		<path d="M1161.6,478.7v35h-107.4v-35H1161.6 M1162.6,477.7h-109.4v37h109.4V477.7L1162.6,477.7z"/>
	</g>
	<rect x="1162.6" y="343.4" class="st1" width="31.3" height="15"/>
	<line class="st3" x1="1008.6" y1="495" x2="1008.6" y2="499.7"/>
	<path class="st1" d="M1056.1,478.8c-3.9-0.5-7.1-1.5-9.3-2.3c-2.9-1.1-5-2.3-6.9-3.5c-1.8-1.1-2.7-1.7-3.5-2.3
		c-1-0.8-2.3-1.8-3.5-3.5c-1.1-1.6-1.7-3-2.3-4.6c-0.6-1.7-0.4-1.6-1.2-3.5c-0.7-1.9-1.1-2.3-1.2-3.5c-0.1-1.3,0.3-1.5,0-2.3
		c-0.3-0.9-1-1.2-1.2-2.3c-0.1-0.6,0-0.6,0-1.2c-0.1-1.6-1.7-1.9-2.3-3.5c-0.7-1.7,0.1-3.5,0-3.5c-0.1,0,0.3,2.6-1.2,4.6
		c-0.8,1.1-0.7,1.8-1.2,2.3c-0.6,0.6-1.1,0.7-1.2,1.2c-0.2,1,1.4,2,1.2,2.3c-0.2,0.2-1-0.2-1.2,0c-0.2,0.3,0.5,1.1,0.3,1.6
		c0,0-0.1,0.2-0.2,0.3c-0.1,0.1-0.1,0.3-0.2,0.4c-0.2,0.5-0.2,1.1-0.4,2.3c-0.3,2-0.2,2.8-0.8,4.6c-0.7,2.3-1.7,3.8-2.3,4.6
		c-1.3,1.9-2.7,3.1-4.6,4.6c-3.5,2.9-3.7,2.1-4.6,3.5c-1.8,2.5-0.4,4.1-2.3,8.1c-0.2,0.4-0.9,1.9-2.3,3.5c-1.8,2-3.7,3.3-5.8,4.6
		c-2.4,1.5-3.6,2-3.5,2.3c0.2,0.5,3,0.1,9.3,0c2.5,0,3.7,0.4,4.6,1.2c2.5,2.2,0.4,6.5,1.2,9.3c2.6,9.2,40.7,16.9,49.8,0
		C1064.9,494.4,1057.4,481.1,1056.1,478.8z"/>
	<path class="st5" d="M1024.8,436c0,7.7,1.6,13.9,3.5,13.9"/>
	<rect x="997.1" y="495" class="st1" width="12.7" height="3.5"/>
	<path class="st7" d="M1235.5,373.9c0,11.4-4.6,20.7-10.3,20.7"/>
	<path class="st7" d="M1241.4,373.9c0,11.4,4.6,20.7,10.3,20.7"/>
	<line class="st7" x1="1235.5" y1="374.6" x2="1241.3" y2="374.6"/>
	<path class="st1" d="M1236.7,376.9c1.2-1.7,2.6-2.7,3.5-2.3c0.2,0.1,0.7,0.3,1.2,2.3c0.6,2.6-0.2,3.7,0,5.8c0.1,1.6,0.8,3,2.3,5.8
		c1.4,2.7,2.1,4,3.5,4.6c0.8,0.4,1.5,0.4,2.3,1.2c0.5,0.5,1.4,1.6,1.2,2.3c-0.7,1.8-8.9,0.7-12.7,0c-3.8-0.7-5.1-1.4-8.1-1.2
		c-1.4,0.1-3.3,0.4-3.5,0c-0.1-0.2,0.2-0.4,1.2-1.2c2-1.5,2.6-1.6,3.5-2.3c1.2-1,1.7-2.1,2.3-3.5c0.3-0.6,0.2-0.6,1.2-3.5
		c0.5-1.5,0.8-2.3,1.2-3.5c0.8-2.4,1-2.6,1.2-3.5c0.3-1.8,0.2-3.5,0-3.5c-0.2,0-0.5,1.3-1.2,6.9"/>
	<path class="st1" d="M1266.8,412.8c4-8.3,6.5-15.5,8.1-20.8c2.1-7.2,3.3-13.6,4.6-20.8c0.7-3.5,1.2-7,2.3-13.9
		c1.2-7.7,1.8-11.5,2.3-15c1-7.9,0.8-7.7,2.3-19.7c1.1-9.2,1.5-10.7,2.3-18.5c0.3-2.8,0.7-6.8,1.2-11.6c0.8-9.5,1-16.6,1.2-19.7
		c0.9-23.8,1.3-35.8,2.3-35.9c5.4-0.7,30.5,183.9,9.3,189.8c-1.3,0.4-8.7,1.8-17.4,0c-4.9-1-7.1-2.3-12.7-3.5
		c-6.2-1.3-11.5-1.3-15-1.2"/>
	<path class="st1" d="M1352.4,422.1c-20.2,6.9-32.1,4.2-39.4,0c-33-19.1-28.3-102.7,8.1-210.7"/>
	<path class="st1" d="M1377.9,394.3"/>
	<path class="st1" d="M1137.1,451c7.4,5.3,16.2,4.5,19.7,0c4.2-5.3,0.4-15-1.2-15c-1,0-1.1,3.7-4.6,6.9c-1.3,1.2-2.5,1.9-3.5,2.3"/>
	<path class="st1" d="M1158,422.1c8.2,1.9,10.2,1.7,10.4,1.2c0.2-0.6-1.9-1.5-3.5-4.6c-0.6-1.1-0.8-2-1.2-3.5c-1-3.8-1-7-1.2-6.9
		c-0.2,0,0.6,4.1-1.2,8.1c-0.7,1.5-1.6,2.7-2.3,3.5"/>
	<path class="st7" d="M1381.9,372.8c0,11.4-4.6,20.7-10.3,20.7"/>
	<path class="st7" d="M1387.8,372.8c0,11.4,4.6,20.7,10.3,20.7"/>
	<line class="st7" x1="1382" y1="373.5" x2="1387.7" y2="373.5"/>
	<path class="st1" d="M1383.1,375.8c1.2-1.7,2.6-2.7,3.5-2.3c0.2,0.1,0.7,0.3,1.2,2.3c0.6,2.6-0.2,3.7,0,5.8c0.1,1.6,0.8,3,2.3,5.8
		c1.4,2.7,2.1,4,3.5,4.6c0.8,0.4,1.5,0.4,2.3,1.2c0.5,0.5,1.4,1.6,1.2,2.3c-0.7,1.8-8.9,0.7-12.7,0c-3.8-0.7-5.1-1.4-8.1-1.2
		c-1.4,0.1-3.3,0.4-3.5,0c-0.1-0.2,0.2-0.4,1.2-1.2c2-1.5,2.6-1.6,3.5-2.3c1.2-1,1.7-2.1,2.3-3.5c0.3-0.6,0.2-0.6,1.2-3.5
		c0.5-1.5,0.8-2.3,1.2-3.5c0.8-2.4,1-2.6,1.2-3.5c0.3-1.8,0.2-3.5,0-3.5c-0.2,0-0.5,1.3-1.2,6.9"/>
	<ellipse class="st6" cx="1483.2" cy="417.9" rx="59.1" ry="54.8"/>
	<rect x="1762.5" y="415.5" class="st1" width="139.2" height="91.2"/>
	<ellipse class="st6" cx="1832.2" cy="415.9" rx="59.1" ry="54.8"/>
</g>
<g id="Tower">
	<path class="st8" d="M1293.7,170.7c0,139.2-17,251.8-37.9,251.8"/>
	<path class="st8" d="M1321.3,174.1c0,137.3,15.4,248.4,34.5,248.4"/>
	<path class="st8" d="M1304.1,81c0,30.5-7.7,55.2-17.2,55.2c6.4,0,12.9,0,19.3,0"/>
	<path class="st8" d="M1311,81c0,30.5,7.9,55.2,17.7,55.2"/>
	<path class="st3" d="M1321.3,184.5v-13.8V184.5z"/>
	<rect x="1286.8" y="136.2" class="st1" width="41.4" height="34.5"/>
	<line class="st7" x1="1303.8" y1="80.6" x2="1310.8" y2="80.6"/>
	<rect x="1307.3" y="51.3" class="st3" width="30.1" height="11.6"/>
	<rect x="1293.4" y="170.9" class="st1" width="27.8" height="254.7"/>
	<path class="st1" d="M1310.8,135c-1.9,0-3.9,0-5.8,0c0-6.7,0-13.4,0-20.1c0-6.4,0-12.9,0-19.3c0-1.4,0-2.8,0-4.3
		c0-3.6,0-7.2,0-10.8c1.9,0,3.9,0,5.8,0V135z"/>
	<path class="st1" d="M1289.9,136.2"/>
	<path class="st1" d="M1299.9,137.6c-5.9-1.5-9.2,0.1-9.8-1.3c-0.6-1.3,2-2.8,4.9-7.9c1.8-3.1,2.6-5.8,3.7-9.2
		c0.5-1.7,0.8-2.7,2.5-10.5c1.5-6.9,2.2-10.4,2.5-11.8c1.2-7.8,0.8-11.8,1.2-11.8c1-0.1,2.2,26.3,2.5,32.9c0.5,11.1,0.7,19.9-2.5,21
		C1303.7,139.3,1303.2,138.4,1299.9,137.6z"/>
	<path class="st1" d="M1325.7,135.4c-2.4-3.5-3.8-4.9-5.2-7c-1.3-1.9-2-3.4-2.6-4.7c-0.8-1.7-1.5-3.4-2.6-7c-1.3-4.3-2-6.5-2.6-9.4
		c-1.5-7.3-0.8-11.7-1.3-11.7c-0.7-0.1-1.2,8.8-3.9,22.2c-2,10.2-3.2,12.4-1.3,15.2c4.5,6.7,19.8,6.9,20.7,4.7
		C1327.1,137.5,1327,137.3,1325.7,135.4z"/>
	<rect x="1306.5" y="48.5" class="st8" width="1" height="32"/>
</g>
<g id="wheelcarts">
	<ellipse class="st1" cx="624.5" cy="387.5" rx="3.5" ry="2.5"/>
	<path class="st9" d="M621.5,397.5h7c2.2,0,4-1.8,4-4v-1c0-2.2-1.8-4-4-4h-7c-2.2,0-4,1.8-4,4v1
		C617.5,395.7,619.3,397.5,621.5,397.5z"/>
	<ellipse class="st1" cx="633.5" cy="408.5" rx="3.5" ry="2.5"/>
	<path class="st9" d="M630.5,418.5h7c2.2,0,4-1.8,4-4v-1c0-2.2-1.8-4-4-4h-7c-2.2,0-4,1.8-4,4v1
		C626.5,416.7,628.3,418.5,630.5,418.5z"/>
	<ellipse class="st1" cx="635.5" cy="430.5" rx="3.5" ry="2.5"/>
	<path class="st9" d="M632.5,440.5h7c2.2,0,4-1.8,4-4v-1c0-2.2-1.8-4-4-4h-7c-2.2,0-4,1.8-4,4v1
		C628.5,438.7,630.3,440.5,632.5,440.5z"/>
	<ellipse class="st1" cx="633.5" cy="454.5" rx="3.5" ry="2.5"/>
	<path class="st9" d="M630.5,464.5h7c2.2,0,4-1.8,4-4v-1c0-2.2-1.8-4-4-4h-7c-2.2,0-4,1.8-4,4v1
		C626.5,462.7,628.3,464.5,630.5,464.5z"/>
	<ellipse class="st1" cx="624.5" cy="475.5" rx="3.5" ry="2.5"/>
	<path class="st9" d="M621.5,485.5h7c2.2,0,4-1.8,4-4v-1c0-2.2-1.8-4-4-4h-7c-2.2,0-4,1.8-4,4v1
		C617.5,483.7,619.3,485.5,621.5,485.5z"/>
	<ellipse class="st1" cx="611.5" cy="493.5" rx="3.5" ry="2.5"/>
	<path class="st9" d="M608.5,503.5h7c2.2,0,4-1.8,4-4v-1c0-2.2-1.8-4-4-4h-7c-2.2,0-4,1.8-4,4v1
		C604.5,501.7,606.3,503.5,608.5,503.5z"/>
	<ellipse class="st1" cx="592.5" cy="507.5" rx="3.5" ry="2.5"/>
	<path class="st9" d="M589.5,517.5h7c2.2,0,4-1.8,4-4v-1c0-2.2-1.8-4-4-4h-7c-2.2,0-4,1.8-4,4v1
		C585.5,515.7,587.3,517.5,589.5,517.5z"/>
	<ellipse class="st1" cx="571.5" cy="515.5" rx="3.5" ry="2.5"/>
	<path class="st9" d="M568.5,525.5h7c2.2,0,4-1.8,4-4v-1c0-2.2-1.8-4-4-4h-7c-2.2,0-4,1.8-4,4v1
		C564.5,523.7,566.3,525.5,568.5,525.5z"/>
	<ellipse class="st1" cx="548.5" cy="518.5" rx="3.5" ry="2.5"/>
	<path class="st9" d="M545.5,528.5h7c2.2,0,4-1.8,4-4v-1c0-2.2-1.8-4-4-4h-7c-2.2,0-4,1.8-4,4v1
		C541.5,526.7,543.3,528.5,545.5,528.5z"/>
	<ellipse class="st1" cx="525.5" cy="515.5" rx="3.5" ry="2.5"/>
	<path class="st9" d="M522.5,525.5h7c2.2,0,4-1.8,4-4v-1c0-2.2-1.8-4-4-4h-7c-2.2,0-4,1.8-4,4v1
		C518.5,523.7,520.3,525.5,522.5,525.5z"/>
	<ellipse class="st1" cx="505.5" cy="506.5" rx="3.5" ry="2.5"/>
	<path class="st9" d="M502.5,516.5h7c2.2,0,4-1.8,4-4v-1c0-2.2-1.8-4-4-4h-7c-2.2,0-4,1.8-4,4v1
		C498.5,514.7,500.3,516.5,502.5,516.5z"/>
	<ellipse class="st1" cx="486.5" cy="492.5" rx="3.5" ry="2.5"/>
	<path class="st9" d="M483.5,502.5h7c2.2,0,4-1.8,4-4v-1c0-2.2-1.8-4-4-4h-7c-2.2,0-4,1.8-4,4v1
		C479.5,500.7,481.3,502.5,483.5,502.5z"/>
	<ellipse class="st1" cx="472.5" cy="474.5" rx="3.5" ry="2.5"/>
	<path class="st9" d="M469.5,484.5h7c2.2,0,4-1.8,4-4v-1c0-2.2-1.8-4-4-4h-7c-2.2,0-4,1.8-4,4v1
		C465.5,482.7,467.3,484.5,469.5,484.5z"/>
	<ellipse class="st1" cx="463.5" cy="453.5" rx="3.5" ry="2.5"/>
	<path class="st9" d="M460.5,463.5h7c2.2,0,4-1.8,4-4v-1c0-2.2-1.8-4-4-4h-7c-2.2,0-4,1.8-4,4v1
		C456.5,461.7,458.3,463.5,460.5,463.5z"/>
	<ellipse class="st1" cx="461.5" cy="431.5" rx="3.5" ry="2.5"/>
	<path class="st9" d="M458.5,441.5h7c2.2,0,4-1.8,4-4v-1c0-2.2-1.8-4-4-4h-7c-2.2,0-4,1.8-4,4v1
		C454.5,439.7,456.3,441.5,458.5,441.5z"/>
	<ellipse class="st1" cx="463.5" cy="408.5" rx="3.5" ry="2.5"/>
	<path class="st9" d="M460.5,418.5h7c2.2,0,4-1.8,4-4v-1c0-2.2-1.8-4-4-4h-7c-2.2,0-4,1.8-4,4v1
		C456.5,416.7,458.3,418.5,460.5,418.5z"/>
	<ellipse class="st1" cx="472.5" cy="387.5" rx="3.5" ry="2.5"/>
	<path class="st9" d="M469.5,397.5h7c2.2,0,4-1.8,4-4v-1c0-2.2-1.8-4-4-4h-7c-2.2,0-4,1.8-4,4v1
		C465.5,395.7,467.3,397.5,469.5,397.5z"/>
	<ellipse class="st1" cx="486.5" cy="368.5" rx="3.5" ry="2.5"/>
	<path class="st9" d="M483.5,378.5h7c2.2,0,4-1.8,4-4v-1c0-2.2-1.8-4-4-4h-7c-2.2,0-4,1.8-4,4v1
		C479.5,376.7,481.3,378.5,483.5,378.5z"/>
	<ellipse class="st1" cx="504.5" cy="355.5" rx="3.5" ry="2.5"/>
	<path class="st9" d="M501.5,365.5h7c2.2,0,4-1.8,4-4v-1c0-2.2-1.8-4-4-4h-7c-2.2,0-4,1.8-4,4v1
		C497.5,363.7,499.3,365.5,501.5,365.5z"/>
	<ellipse class="st1" cx="526.5" cy="345.5" rx="3.5" ry="2.5"/>
	<path class="st9" d="M523.5,355.5h7c2.2,0,4-1.8,4-4v-1c0-2.2-1.8-4-4-4h-7c-2.2,0-4,1.8-4,4v1
		C519.5,353.7,521.3,355.5,523.5,355.5z"/>
	<ellipse class="st1" cx="549.5" cy="342.5" rx="3.5" ry="2.5"/>
	<path class="st9" d="M546.5,352.5h7c2.2,0,4-1.8,4-4v-1c0-2.2-1.8-4-4-4h-7c-2.2,0-4,1.8-4,4v1
		C542.5,350.7,544.3,352.5,546.5,352.5z"/>
	<ellipse class="st1" cx="571.5" cy="345.5" rx="3.5" ry="2.5"/>
	<path class="st9" d="M568.5,355.5h7c2.2,0,4-1.8,4-4v-1c0-2.2-1.8-4-4-4h-7c-2.2,0-4,1.8-4,4v1
		C564.5,353.7,566.3,355.5,568.5,355.5z"/>
	<ellipse class="st1" cx="592.5" cy="355.5" rx="3.5" ry="2.5"/>
	<path class="st9" d="M589.5,365.5h7c2.2,0,4-1.8,4-4v-1c0-2.2-1.8-4-4-4h-7c-2.2,0-4,1.8-4,4v1
		C585.5,363.7,587.3,365.5,589.5,365.5z"/>
	<line class="st5" x1="628.5" y1="427.5" x2="635.5" y2="431.5"/>
	<line class="st5" x1="627.5" y1="447.5" x2="633.5" y2="454.5"/>
	<line class="st5" x1="624.5" y1="455.5" x2="633.5" y2="454.5"/>
	<line class="st5" x1="620.5" y1="467.5" x2="624.5" y2="475.5"/>
	<line class="st5" x1="616.5" y1="473.5" x2="624.5" y2="475.5"/>
	<line class="st5" x1="609.5" y1="484.5" x2="611.5" y2="493.5"/>
	<line class="st5" x1="602.5" y1="490.5" x2="611.5" y2="493.5"/>
	<line class="st5" x1="592.5" y1="499.5" x2="592.5" y2="507.5"/>
	<line class="st5" x1="586.5" y1="502.5" x2="592.5" y2="507.5"/>
	<line class="st5" x1="566.5" y1="509.5" x2="571.5" y2="515.5"/>
	<line class="st5" x1="545.5" y1="511.5" x2="548.5" y2="517.5"/>
	<line class="st5" x1="553.5" y1="511.5" x2="548.5" y2="517.5"/>
	<line class="st5" x1="532.5" y1="509.5" x2="525.5" y2="515.5"/>
	<line class="st5" x1="511.5" y1="502.5" x2="506.5" y2="506.5"/>
	<line class="st5" x1="505.5" y1="499.5" x2="505.5" y2="506.5"/>
	<line class="st5" x1="494.5" y1="491.5" x2="487.5" y2="492.5"/>
	<line class="st5" x1="489.5" y1="485.5" x2="487.5" y2="492.5"/>
	<line class="st5" x1="477.5" y1="468.5" x2="473.5" y2="473.5"/>
	<line class="st5" x1="481.5" y1="474.5" x2="472.5" y2="474.5"/>
	<line class="st5" x1="469.5" y1="448.5" x2="463.5" y2="453.5"/>
	<line class="st5" x1="468.5" y1="427.5" x2="462.5" y2="430.5"/>
	<line class="st5" x1="471.5" y1="408.5" x2="464.5" y2="407.5"/>
	<line class="st5" x1="633.5" y1="408.5" x2="624.5" y2="407.5"/>
	<ellipse class="st1" cx="609.5" cy="367.5" rx="3.5" ry="2.5"/>
	<path class="st9" d="M606.5,377.5h7c2.2,0,4-1.8,4-4v-1c0-2.2-1.8-4-4-4h-7c-2.2,0-4,1.8-4,4v1
		C602.5,375.7,604.3,377.5,606.5,377.5z"/>
	<circle class="st1" cx="549" cy="432" r="8.5"/>
	<circle class="st10" cx="549" cy="433" r="79.5"/>
	<circle class="st10" cx="549.5" cy="432.5" r="70"/>
	<line class="st11" x1="531.5" y1="365.5" x2="547.5" y2="425.5"/>
	<line class="st11" x1="549.5" y1="363.5" x2="548.5" y2="428.5"/>
	<line class="st11" x1="567.5" y1="365.5" x2="551.5" y2="423.5"/>
	<line class="st11" x1="584.5" y1="371.5" x2="553.5" y2="424.5"/>
	<line class="st11" x1="555.5" y1="426.5" x2="598.5" y2="383.5"/>
	<line class="st11" x1="609.5" y1="397.5" x2="549.5" y2="432.5"/>
	<line class="st11" x1="616.5" y1="414.5" x2="549.5" y2="432.5"/>
	<line class="st11" x1="619.5" y1="432.5" x2="549.5" y2="432.5"/>
	<line class="st11" x1="616.5" y1="450.5" x2="549.5" y2="433.5"/>
	<line class="st11" x1="609.5" y1="467.5" x2="549.5" y2="433.5"/>
	<line class="st11" x1="598.5" y1="481.5" x2="549.5" y2="433.5"/>
	<line class="st11" x1="584.5" y1="493.5" x2="549.5" y2="433.5"/>
	<line class="st11" x1="549.5" y1="502.5" x2="549.5" y2="433.5"/>
	<line class="st11" x1="514.5" y1="492.5" x2="545.5" y2="438.5"/>
	<line class="st11" x1="499.5" y1="481.5" x2="548.5" y2="433.5"/>
	<line class="st11" x1="488.5" y1="467.5" x2="548.5" y2="433.5"/>
	<line class="st11" x1="481.5" y1="450.5" x2="549.5" y2="432.5"/>
	<line class="st11" x1="479.5" y1="432.5" x2="549.5" y2="432.5"/>
	<line class="st11" x1="481.5" y1="414.5" x2="549.5" y2="432.5"/>
	<line class="st11" x1="488.5" y1="397.5" x2="549.5" y2="432.5"/>
	<line class="st11" x1="499.5" y1="383.5" x2="549.5" y2="432.5"/>
	<line class="st11" x1="514.5" y1="371.5" x2="549.5" y2="432.5"/>
	<line class="st11" x1="579.5" y1="368.5" x2="588.5" y2="363.5"/>
	<line class="st11" x1="588.5" y1="374.5" x2="588.5" y2="363.5"/>
	<line class="st11" x1="602.5" y1="386.5" x2="605.5" y2="376.5"/>
	<line class="st11" x1="594.5" y1="378.5" x2="605.5" y2="376.5"/>
	<line class="st11" x1="607.5" y1="392.5" x2="617.5" y2="392.5"/>
	<line class="st11" x1="612.5" y1="402.5" x2="617.5" y2="392.5"/>
	<line class="st11" x1="618.5" y1="419.5" x2="625.5" y2="412.5"/>
	<line class="st11" x1="615.5" y1="408.5" x2="625.5" y2="411.5"/>
	<line class="st11" x1="619.5" y1="427.5" x2="628.5" y2="432.5"/>
	<line class="st11" x1="619.5" y1="437.5" x2="628.5" y2="432.5"/>
	<line class="st11" x1="615.5" y1="455.5" x2="625.5" y2="453.5"/>
	<line class="st11" x1="618.5" y1="445.5" x2="625.5" y2="453.5"/>
	<line class="st11" x1="612.5" y1="462.5" x2="618.5" y2="472.5"/>
	<line class="st11" x1="607.5" y1="472.5" x2="618.5" y2="472.5"/>
	<line class="st11" x1="602.5" y1="478.5" x2="605.5" y2="488.5"/>
	<line class="st11" x1="594.5" y1="485.5" x2="605.5" y2="488.5"/>
	<line class="st11" x1="588.5" y1="490.5" x2="588.5" y2="502.5"/>
	<line class="st11" x1="579.5" y1="495.5" x2="589.5" y2="501.5"/>
	<line class="st11" x1="561.5" y1="501.5" x2="570.5" y2="509.5"/>
	<line class="st11" x1="543.5" y1="502.5" x2="549.5" y2="512.5"/>
	<line class="st11" x1="554.5" y1="502.5" x2="549.5" y2="512.5"/>
	<line class="st11" x1="536.5" y1="501.5" x2="528.5" y2="509.5"/>
	<line class="st11" x1="508.5" y1="501.5" x2="519.5" y2="495.5"/>
	<line class="st11" x1="509.5" y1="489.5" x2="509.5" y2="501.5"/>
	<line class="st11" x1="495.5" y1="477.5" x2="492.5" y2="488.5"/>
	<line class="st11" x1="503.5" y1="485.5" x2="492.5" y2="488.5"/>
	<line class="st11" x1="485.5" y1="461.5" x2="480.5" y2="472.5"/>
	<line class="st11" x1="492.5" y1="472.5" x2="480.5" y2="472.5"/>
	<line class="st11" x1="480.5" y1="444.5" x2="472.5" y2="453.5"/>
	<line class="st11" x1="483.5" y1="456.5" x2="472.5" y2="453.5"/>
	<line class="st11" x1="469.5" y1="432.5" x2="480.5" y2="426.5"/>
	<line class="st11" x1="480.5" y1="438.5" x2="470.5" y2="432.5"/>
	<line class="st11" x1="472.5" y1="411.5" x2="480.5" y2="420.5"/>
	<line class="st11" x1="483.5" y1="408.5" x2="472.5" y2="411.5"/>
	<line class="st11" x1="480.5" y1="392.5" x2="485.5" y2="402.5"/>
	<line class="st11" x1="492.5" y1="392.5" x2="480.5" y2="392.5"/>
	<line class="st11" x1="495.5" y1="387.5" x2="492.5" y2="377.5"/>
	<line class="st11" x1="503.5" y1="379.5" x2="492.5" y2="376.5"/>
	<line class="st11" x1="509.5" y1="375.5" x2="509.5" y2="363.5"/>
	<line class="st11" x1="519.5" y1="369.5" x2="509.5" y2="363.5"/>
	<line class="st11" x1="525.5" y1="366.5" x2="528.5" y2="356.5"/>
	<line class="st11" x1="536.5" y1="363.5" x2="528.5" y2="356.5"/>
	<line class="st11" x1="543.5" y1="362.5" x2="548.5" y2="353.5"/>
	<line class="st11" x1="555.5" y1="362.5" x2="548.5" y2="353.5"/>
	<line class="st11" x1="572.5" y1="365.5" x2="569.5" y2="356.5"/>
	<line class="st11" x1="561.5" y1="363.5" x2="569.5" y2="356.5"/>
	<line class="st11" x1="532.5" y1="500.5" x2="548.5" y2="432.5"/>
	<line class="st11" x1="568.5" y1="499.5" x2="549.5" y2="433.5"/>
	<line class="st11" x1="526.5" y1="498.5" x2="529.5" y2="509.5"/>
	<line class="st11" x1="572.5" y1="498.5" x2="569.5" y2="508.5"/>
	<line class="st5" x1="524.5" y1="508.5" x2="527.5" y2="514.5"/>
	<line class="st5" x1="574.5" y1="508.5" x2="570.5" y2="514.5"/>
</g>
<g id="wheel">
	<line class="st12" x1="515.5" y1="536.5" x2="548.5" y2="432.5"/>
	<line class="st12" x1="582.5" y1="536.5" x2="549.5" y2="432.5"/>
	<line class="st10" x1="496.5" y1="536.5" x2="601.5" y2="536.5"/>
</g>
<g id="lights">
	<circle class="light" cx="1288.8" cy="138.5" r="1.2"/>
	<circle class="light" cx="1293.4" cy="138.5" r="1.2"/>
	<circle class="light" cx="1298" cy="138.5" r="1.2"/>
	<circle class="light" cx="1302.7" cy="138.5" r="1.2"/>
	<circle class="light" cx="1307.3" cy="138.5" r="1.2"/>
	<circle class="light" cx="1311.9" cy="138.5" r="1.2"/>
	<circle class="light" cx="1316.6" cy="138.5" r="1.2"/>
	<circle class="light" cx="1321.2" cy="138.5" r="1.2"/>
	<circle class="light" cx="1325.8" cy="138.5" r="1.2"/>
	<circle class="light" cx="1288.8" cy="168.6" r="1.2"/>
	<circle class="light" cx="1293.4" cy="168.6" r="1.2"/>
	<circle class="light" cx="1298" cy="168.6" r="1.2"/>
	<circle class="light" cx="1302.7" cy="168.6" r="1.2"/>
	<circle class="light" cx="1307.3" cy="168.6" r="1.2"/>
	<circle class="light" cx="1311.9" cy="168.6" r="1.2"/>
	<circle class="light" cx="1316.6" cy="168.6" r="1.2"/>
	<circle class="light" cx="1321.2" cy="168.6" r="1.2"/>
	<circle class="light" cx="1325.8" cy="168.6" r="1.2"/>
	<circle class="light" cx="1288.8" cy="143.1" r="1.2"/>
	<circle class="light" cx="1288.8" cy="159.3" r="1.2"/>
	<circle class="light" cx="1288.8" cy="163.9" r="1.2"/>
	<circle class="light" cx="1288.8" cy="147.7" r="1.2"/>
	<circle class="light" cx="1288.8" cy="153.5" r="1.2"/>
	<circle class="light" cx="1325.8" cy="143.1" r="1.2"/>
	<circle class="light" cx="1325.8" cy="159.3" r="1.2"/>
	<circle class="light" cx="1325.8" cy="163.9" r="1.2"/>
	<circle class="light" cx="1325.8" cy="147.7" r="1.2"/>
	<circle class="light" cx="1325.8" cy="153.5" r="1.2"/>
	<circle class="light" cx="1295.7" cy="133.8" r="1.2"/>
	<circle class="light" cx="1298" cy="129.2" r="1.2"/>
	<circle class="light" cx="1307.3" cy="82.9" r="1.2"/>
	<circle class="light" cx="1307.3" cy="87.5" r="1.2"/>
	<circle class="light" cx="1307.3" cy="92.2" r="1.2"/>
	<circle class="light" cx="1307.3" cy="96.8" r="1.2"/>
	<circle class="light" cx="1307.3" cy="101.4" r="1.2"/>
	<circle class="light" cx="1305" cy="106.1" r="1.2"/>
	<circle class="light" cx="1309.6" cy="106.1" r="1.2"/>
	<circle class="light" cx="1303.8" cy="110.7" r="1.2"/>
	<circle class="light" cx="1310.8" cy="110.7" r="1.2"/>
	<circle class="light" cx="1302.7" cy="115.3" r="1.2"/>
	<circle class="light" cx="1311.9" cy="115.3" r="1.2"/>
	<circle class="light" cx="1301.5" cy="120" r="1.2"/>
	<circle class="light" cx="1313.1" cy="120" r="1.2"/>
	<circle class="light" cx="1300.3" cy="124.6" r="1.2"/>
	<circle class="light" cx="1314.2" cy="124.6" r="1.2"/>
	<circle class="light" cx="1318.9" cy="133.8" r="1.2"/>
	<circle class="light" cx="1316.6" cy="129.2" r="1.2"/>
	<circle class="light" cx="1295.7" cy="173.2" r="1.2"/>
	<circle class="light" cx="1300.3" cy="173.2" r="1.2"/>
	<circle class="light" cx="1305" cy="173.2" r="1.2"/>
	<circle class="light" cx="1309.6" cy="173.2" r="1.2"/>
	<circle class="light" cx="1314.2" cy="173.2" r="1.2"/>
	<circle class="light" cx="1318.9" cy="173.2" r="1.2"/>
	<circle class="light" cx="1295.7" cy="177.8" r="1.2"/>
	<circle class="light" cx="1295.7" cy="182.5" r="1.2"/>
	<circle class="light" cx="1295.7" cy="187.1" r="1.2"/>
	<circle class="light" cx="1295.7" cy="191.7" r="1.2"/>
	<circle class="light" cx="1295.7" cy="196.4" r="1.2"/>
	<circle class="light" cx="1295.7" cy="201" r="1.2"/>
	<circle class="light" cx="1295.7" cy="205.6" r="1.2"/>
	<circle class="light" cx="1295.7" cy="210.3" r="1.2"/>
	<circle class="light" cx="1295.7" cy="214.9" r="1.2"/>
	<circle class="light" cx="1295.7" cy="219.5" r="1.2"/>
	<circle class="light" cx="1295.7" cy="224.1" r="1.2"/>
	<circle class="light" cx="1295.7" cy="228.8" r="1.2"/>
	<circle class="light" cx="1295.7" cy="233.4" r="1.2"/>
	<circle class="light" cx="1295.7" cy="238" r="1.2"/>
	<circle class="light" cx="1318.9" cy="233.4" r="1.2"/>
	<circle class="light" cx="1318.9" cy="238" r="1.2"/>
	<circle class="light" cx="1295.7" cy="242.7" r="1.2"/>
	<circle class="light" cx="1295.7" cy="247.3" r="1.2"/>
	<circle class="light" cx="1295.7" cy="251.9" r="1.2"/>
	<circle class="light" cx="1318.9" cy="242.7" r="1.2"/>
	<circle class="light" cx="1318.9" cy="247.3" r="1.2"/>
	<circle class="light" cx="1318.9" cy="251.9" r="1.2"/>
	<circle class="light" cx="1318.9" cy="177.8" r="1.2"/>
	<circle class="light" cx="1318.9" cy="182.5" r="1.2"/>
	<circle class="light" cx="1318.9" cy="187.1" r="1.2"/>
	<circle class="light" cx="1318.9" cy="191.7" r="1.2"/>
	<circle class="light" cx="1318.9" cy="196.4" r="1.2"/>
	<circle class="light" cx="1318.9" cy="201" r="1.2"/>
	<circle class="light" cx="1318.9" cy="205.6" r="1.2"/>
	<circle class="light" cx="1318.9" cy="210.3" r="1.2"/>
	<circle class="light" cx="1318.9" cy="214.9" r="1.2"/>
	<circle class="light" cx="1318.9" cy="219.5" r="1.2"/>
	<circle class="light" cx="1318.9" cy="224.1" r="1.2"/>
	<circle class="light" cx="1318.9" cy="228.8" r="1.2"/>
	<circle class="light" cx="1295.7" cy="256.6" r="1.2"/>
	<circle class="light" cx="1295.7" cy="261.2" r="1.2"/>
	<circle class="light" cx="1295.7" cy="265.8" r="1.2"/>
	<circle class="light" cx="1295.7" cy="270.4" r="1.2"/>
	<circle class="light" cx="1295.7" cy="275.1" r="1.2"/>
	<circle class="light" cx="1294.6" cy="279.7" r="1.2"/>
	<circle class="light" cx="1294.6" cy="284.3" r="1.2"/>
	<circle class="light" cx="1293.4" cy="289" r="1.2"/>
	<circle class="light" cx="1293.4" cy="293.6" r="1.2"/>
	<circle class="light" cx="1293.4" cy="298.2" r="1.2"/>
	<circle class="light" cx="1292.2" cy="302.9" r="1.2"/>
	<circle class="light" cx="1292.2" cy="307.5" r="1.2"/>
	<circle class="light" cx="1291.1" cy="312.1" r="1.2"/>
	<circle class="light" cx="1291.1" cy="316.8" r="1.2"/>
	<circle class="light" cx="1289.9" cy="321.4" r="1.2"/>
	<circle class="light" cx="1289.9" cy="326" r="1.2"/>
	<circle class="light" cx="1288.8" cy="330.6" r="1.2"/>
	<circle class="light" cx="1288.8" cy="335.3" r="1.2"/>
	<circle class="light" cx="1288.8" cy="339.9" r="1.2"/>
	<circle class="light" cx="1287.6" cy="344.5" r="1.2"/>
	<circle class="light" cx="1287.6" cy="349.2" r="1.2"/>
	<circle class="light" cx="1286.5" cy="353.8" r="1.2"/>
	<circle class="light" cx="1286.5" cy="358.4" r="1.2"/>
	<circle class="light" cx="1285.3" cy="363.1" r="1.2"/>
	<circle class="light" cx="1284.1" cy="367.7" r="1.2"/>
	<circle class="light" cx="1283" cy="372.3" r="1.2"/>
	<circle class="light" cx="1281.8" cy="376.9" r="1.2"/>
	<circle class="light" cx="1280.7" cy="381.6" r="1.2"/>
	<circle class="light" cx="1279.5" cy="386.2" r="1.2"/>
	<circle class="light" cx="1278.4" cy="390.8" r="1.2"/>
	<circle class="light" cx="1277.2" cy="395.5" r="1.2"/>
	<circle class="light" cx="1276" cy="400.1" r="1.2"/>
	<circle class="light" cx="1273.7" cy="404.7" r="1.2"/>
	<circle class="light" cx="1271.4" cy="409.4" r="1.2"/>
	<circle class="light" cx="1269.1" cy="414" r="1.2"/>
	<circle class="light" cx="1265.6" cy="417.5" r="1.2"/>
	<circle class="light" cx="1318.9" cy="256.6" r="1.2"/>
	<circle class="light" cx="1318.9" cy="261.2" r="1.2"/>
	<circle class="light" cx="1318.9" cy="265.8" r="1.2"/>
	<circle class="light" cx="1318.9" cy="270.4" r="1.2"/>
	<circle class="light" cx="1318.9" cy="275.1" r="1.2"/>
	<circle class="light" cx="1320" cy="279.7" r="1.2"/>
	<circle class="light" cx="1320" cy="284.3" r="1.2"/>
	<circle class="light" cx="1321.2" cy="289" r="1.2"/>
	<circle class="light" cx="1321.2" cy="293.6" r="1.2"/>
	<circle class="light" cx="1321.2" cy="298.2" r="1.2"/>
	<circle class="light" cx="1322.3" cy="302.9" r="1.2"/>
	<circle class="light" cx="1322.3" cy="307.5" r="1.2"/>
	<circle class="light" cx="1323.5" cy="312.1" r="1.2"/>
	<circle class="light" cx="1323.5" cy="316.8" r="1.2"/>
	<circle class="light" cx="1324.7" cy="321.4" r="1.2"/>
	<circle class="light" cx="1324.7" cy="326" r="1.2"/>
	<circle class="light" cx="1325.8" cy="330.6" r="1.2"/>
	<circle class="light" cx="1325.8" cy="335.3" r="1.2"/>
	<circle class="light" cx="1325.8" cy="339.9" r="1.2"/>
	<circle class="light" cx="1327" cy="344.5" r="1.2"/>
	<circle class="light" cx="1327" cy="349.2" r="1.2"/>
	<circle class="light" cx="1328.1" cy="353.8" r="1.2"/>
	<circle class="light" cx="1328.1" cy="358.4" r="1.2"/>
	<circle class="light" cx="1329.3" cy="363.1" r="1.2"/>
	<circle class="light" cx="1330.4" cy="367.7" r="1.2"/>
	<circle class="light" cx="1331.6" cy="372.3" r="1.2"/>
	<circle class="light" cx="1332.8" cy="376.9" r="1.2"/>
	<circle class="light" cx="1333.9" cy="381.6" r="1.2"/>
	<circle class="light" cx="1335.1" cy="386.2" r="1.2"/>
	<circle class="light" cx="1336.2" cy="390.8" r="1.2"/>
	<circle class="light" cx="1337.4" cy="395.5" r="1.2"/>
	<circle class="light" cx="1338.5" cy="400.1" r="1.2"/>
	<circle class="light" cx="1339.7" cy="404.7" r="1.2"/>
	<circle class="light" cx="1342" cy="410.5" r="1.2"/>
	<circle class="light" cx="1344.3" cy="415.1" r="1.2"/>
</g>
<g id="wheel-light" class="st14">
	<line class="st15" x1="516.5" y1="533.5" x2="545.5" y2="441.5"/>
	<line class="st15" x1="581.5" y1="533.5" x2="552.5" y2="441.5"/>
	<circle class="st16" cx="549" cy="432" r="5.5"/>
	<path class="st15" d="M479,430c0,39.5,31.3,71.5,70,71.5"/>
	<path class="st15" d="M629,429.7c0,45.5-35.3,82.3-79,82.3"/>
	<path class="st15" d="M469,429.7c0,45.5,36.2,82.3,81,82.3"/>
	<path class="st15" d="M469,434.3c0-44.9,36.2-81.3,81-81.3"/>
	<path class="st15" d="M629,434.3c0-44.9-35.3-81.3-79-81.3"/>
	<path class="st15" d="M620,430c0,39.5-31.8,71.5-71,71.5"/>
	<path class="st15" d="M479,432.5c0-39.5,31.8-71.5,71-71.5"/>
	<path class="st15" d="M620,432.5c0-39.5-31.8-71.5-71-71.5"/>
</g>
</svg>
